<svg width="30" height="30" viewBox="0 0 30 30" fill="none" xmlns="http://www.w3.org/2000/svg">
<path d="M20.0756 26.9325C20.4271 26.5809 20.6246 26.1041 20.6246 25.6069C20.6246 25.1097 20.4271 24.6329 20.0756 24.2813L10.7943 15L20.0756 5.71878C20.4171 5.36515 20.6061 4.89152 20.6019 4.3999C20.5976 3.90828 20.4004 3.43801 20.0528 3.09037C19.7051 2.74273 19.2348 2.54554 18.7432 2.54127C18.2516 2.53699 17.778 2.72598 17.4243 3.06753L6.81747 13.6744C6.46596 14.026 6.26849 14.5028 6.26849 15C6.26849 15.4972 6.46596 15.974 6.81747 16.3257L17.4243 26.9325C17.776 27.284 18.2528 27.4815 18.75 27.4815C19.2472 27.4815 19.724 27.284 20.0756 26.9325V26.9325Z" fill="#F2785C"/>
</svg>
